<?xml version="1.0" encoding="UTF-8"?>
<svg xmlns="http://www.w3.org/2000/svg" xmlns:xlink="http://www.w3.org/1999/xlink" viewBox="0 0 1080 1080">
  <defs>
    <style>
      .cls-1 {
        fill: url(#linear-gradient);
      }

      .cls-1, .cls-2, .cls-3, .cls-4, .cls-5 {
        stroke-width: 0px;
      }

      .cls-6 {
        isolation: isolate;
      }

      .cls-2 {
        fill: url(#linear-gradient-5);
      }

      .cls-3 {
        fill: url(#linear-gradient-4);
        opacity: .7;
      }

      .cls-3, .cls-4 {
        mix-blend-mode: multiply;
      }

      .cls-4 {
        fill: url(#linear-gradient-2);
        opacity: .65;
      }

      .cls-5 {
        fill: url(#linear-gradient-3);
      }
    </style>
    <linearGradient id="linear-gradient" x1="481.61" y1="346.27" x2="641.36" y2="842.79" gradientUnits="userSpaceOnUse">
      <stop offset=".2" stop-color="#014957"/>
      <stop offset=".84" stop-color="#5599a6"/>
    </linearGradient>
    <linearGradient id="linear-gradient-2" x1="637.57" y1="819.97" x2="606.28" y2="761.68" gradientUnits="userSpaceOnUse">
      <stop offset="0" stop-color="#231f20"/>
      <stop offset=".33" stop-color="rgba(67, 64, 65, .85)" stop-opacity=".85"/>
      <stop offset=".72" stop-color="rgba(162, 160, 161, .42)" stop-opacity=".42"/>
      <stop offset="1" stop-color="#fff" stop-opacity="0"/>
    </linearGradient>
    <linearGradient id="linear-gradient-3" x1="804.46" y1="351.05" x2="627.76" y2="855.39" gradientUnits="userSpaceOnUse">
      <stop offset=".19" stop-color="#9e2175"/>
      <stop offset=".53" stop-color="#992071"/>
      <stop offset=".7" stop-color="#7c5387"/>
      <stop offset=".91" stop-color="#5599a6"/>
    </linearGradient>
    <linearGradient id="linear-gradient-4" x1="804.99" y1="338.64" x2="775.61" y2="396.64" xlink:href="#linear-gradient-2"/>
    <linearGradient id="linear-gradient-5" x1="205.93" y1="538.76" x2="894.72" y2="538.76" gradientUnits="userSpaceOnUse">
      <stop offset="0" stop-color="#901e6a"/>
      <stop offset="1" stop-color="#9e2175"/>
    </linearGradient>
  </defs>
  <g class="cls-6">
    <g id="Layer_1" data-name="Layer 1">
      <g>
        <path class="cls-1" d="M730.66,730.25c-3.68,6.8-60.76,108.87-194.26,133.95-18.11-13.06-32.37-36.23-54.67-73.94l-6.44-10.9c-30.62-51.76-62.28-105.28-89.89-160-24.83-49.2-29.83-101.68-14.47-151.77,13.88-45.23,44.52-81.9,86.3-103.26,42.87-21.91,92.17-25.25,138.83-9.38,23.71,8.06,44.92,20.47,63.04,36.89,17.72,16.05,31.62,35.13,41.33,56.7,19.52,43.4,19.77,92.33.69,137.75-14.73,35.06-36,65.86-58.52,98.46-9.78,14.16-19.9,28.8-29.35,43.72l-10.43,16.47-14.28-13.28c-22.99-21.39-34.56-40.53-36.41-60.22-1.83-19.5,6.23-38.72,24.64-58.75,14.73-16.03,27.78-37.68,37.72-62.6,13.39-33.57,3.65-69.91-24.82-92.58-27.27-21.71-63.13-24.05-93.57-6.1-30.92,18.23-45.48,51.38-37.09,84.46,7.38,29.13,20.18,60.63,40.28,99.14,10.59,20.29,23.03,40.39,35.07,59.82,12.77,20.63,25.98,41.96,37.39,64.11,9.44,18.32,19.96,22.87,45.02,19.48,42.23-5.72,81.23-22.95,113.9-48.17Z"/>
        <path class="cls-4" d="M730.66,730.25s-55.24,108.88-194.26,133.95c-28.31-21.39-39.51-52.07-69.55-99.11,0,0,39.55-17.26,95.61-23.38,10.16,15.81,11.79,31.15,28.68,36.11,7.62,3.22,69.62,5.88,139.53-47.58Z"/>
        <path class="cls-5" d="M910.22,618.96c-9.45,39.14-25.44,75.66-47.51,108.53-22.09,32.9-49.67,61.23-81.95,84.18-33.09,23.53-70.3,40.81-110.62,51.37l-2.16.57c-4.6,1.21-9.35,2.47-14.35,3.43-32.24,6.21-54.85,10.31-73,10.31-12.18,0-22.35-1.85-32.09-6.16-4.29-1.9-8.31-4.22-12.14-6.99,133.5-25.09,190.59-127.15,194.26-133.95,58.39-45.09,96.59-115.72,96.93-191.76.52-118.46-94.55-226.45-207.62-235.82,0,0,187.43-10.35,274.76,105.07,12.03,27.84,19.88,57.09,23.12,86.92,4.61,42.43,2.04,84.26-7.63,124.3Z"/>
        <path class="cls-3" d="M619.97,302.67s186.36-14.66,274.76,105.07c0,0,21.63,46.63,24.72,106.18,0,0-37.2-60.3-128.31-100.93,0,0-51.26-97.09-171.17-110.32Z"/>
        <path class="cls-2" d="M894.72,407.74c-87.32-115.42-274.76-105.07-274.76-105.07-74.83-6.2-149.02-4.74-227.58-3.19-28.78.57-58.38,1.15-88.01,1.31v478.8c5.13.13,10.22.29,15.23.45,22.81.74,44.36,1.43,65.31-1.36,27.43-3.66,48.99,1.24,65.91,14.98,15.28,12.39,26.26,31.52,34.58,60.21l6.01,20.7h-21.56c-13.68,0-27.18-.02-40.57-.02-29.44-.02-57.26-.04-85.58.04-9.11.02-17.37.1-25.36.16-53.28.44-80.03.66-96.64-15.97-16.3-16.3-16.08-41.29-15.65-91.1.07-8.5.16-18.14.17-28.5.06-79.39.05-160.12.03-238.18,0-72.37-.02-147.21.02-220.83.02-30.15,2.37-48.9,14.69-61.59,12.52-12.9,30.95-15.35,60.59-15.35s58.66-.15,87.27-.3c74.87-.37,152.29-.76,228.49,1.44,78,2.25,154.19,33.7,214.54,88.56,36.36,33.05,64.49,72.28,82.86,114.8Z"/>
      </g>
    </g>
  </g>
</svg>